<?xml version="1.0" encoding="UTF-8"?><svg xmlns="http://www.w3.org/2000/svg" xmlns:xlink="http://www.w3.org/1999/xlink" viewBox="0 0 23.19 23.19"><defs><style>.cls-1{fill:url(#linear-gradient-3);}.cls-1,.cls-2,.cls-3,.cls-4,.cls-5,.cls-6{mix-blend-mode:multiply;}.cls-7{fill:#fff;}.cls-8{fill:#808b8d;}.cls-9{fill:#393f40;}.cls-10{isolation:isolate;}.cls-11{fill:url(#linear-gradient-11);}.cls-2{fill:url(#linear-gradient-6);}.cls-12{fill:url(#linear-gradient-10);}.cls-3{fill:url(#linear-gradient-5);}.cls-4{fill:url(#linear-gradient-8);}.cls-13{fill:#00042d;}.cls-14{fill:#00b7ff;}.cls-5{fill:url(#linear-gradient-2);}.cls-15{fill:url(#linear-gradient-7);}.cls-16{fill:url(#linear-gradient-9);}.cls-17{fill:#007aff;}.cls-18{fill:url(#linear-gradient);}.cls-19{fill:#a693ff;}.cls-20{fill:url(#linear-gradient-4);}.cls-21{fill:#7456ff;}.cls-22{fill:#cbc7e2;}</style><linearGradient id="linear-gradient" x1="12.33" y1="19.26" x2="19.4" y2="6.21" gradientTransform="matrix(1, 0, 0, 1, 0, 0)" gradientUnits="userSpaceOnUse"><stop offset="0" stop-color="#7456ff"/><stop offset=".19" stop-color="#8954ee"/><stop offset=".59" stop-color="#c04fc2"/><stop offset="1" stop-color="#ff4b92"/></linearGradient><linearGradient id="linear-gradient-2" x1="16.53" y1="18.53" x2="18.38" y2="14.48" gradientTransform="matrix(1, 0, 0, 1, 0, 0)" gradientUnits="userSpaceOnUse"><stop offset="0" stop-color="#f4d63b" stop-opacity="0"/><stop offset=".32" stop-color="#ba8f67" stop-opacity=".38"/><stop offset=".64" stop-color="#87518f" stop-opacity=".71"/><stop offset=".88" stop-color="#672aa8" stop-opacity=".92"/><stop offset="1" stop-color="#5c1cb2"/></linearGradient><linearGradient id="linear-gradient-3" x1="18.06" y1="11.69" x2="17.49" y2="15.04" xlink:href="#linear-gradient-2"/><linearGradient id="linear-gradient-4" x1="6.02" y1="15.84" x2="13.1" y2="2.79" gradientTransform="matrix(1, 0, 0, 1, 0, 0)" gradientUnits="userSpaceOnUse"><stop offset="0" stop-color="#7456ff"/><stop offset=".19" stop-color="#8954ee"/><stop offset=".59" stop-color="#c04fc2"/><stop offset="1" stop-color="#ff4b92"/></linearGradient><linearGradient id="linear-gradient-5" x1="397.34" y1="18.53" x2="399.19" y2="14.48" gradientTransform="translate(403.87) rotate(-180) scale(1 -1)" xlink:href="#linear-gradient-2"/><linearGradient id="linear-gradient-6" x1="398.88" y1="11.69" x2="398.31" y2="15.04" gradientTransform="translate(403.87) rotate(-180) scale(1 -1)" xlink:href="#linear-gradient-2"/><linearGradient id="linear-gradient-7" x1="7.22" y1="16.49" x2="14.3" y2="3.44" gradientTransform="matrix(1, 0, 0, 1, 0, 0)" gradientUnits="userSpaceOnUse"><stop offset="0" stop-color="#ff00c1"/><stop offset=".16" stop-color="#fd15ad"/><stop offset=".49" stop-color="#fa4c7a"/><stop offset=".97" stop-color="#f4a52a"/><stop offset="1" stop-color="#f4ac24"/></linearGradient><linearGradient id="linear-gradient-8" x1="10.93" y1="12.63" x2="11.68" y2="5.37" xlink:href="#linear-gradient-2"/><linearGradient id="linear-gradient-9" x1="6.46" y1="16.08" x2="13.53" y2="3.03" xlink:href="#linear-gradient-7"/><linearGradient id="linear-gradient-10" x1="6.99" y1="10.38" x2="6.67" y2="17.15" gradientTransform="matrix(1, 0, 0, 1, 0, 0)" gradientUnits="userSpaceOnUse"><stop offset="0" stop-color="#fff" stop-opacity="0"/><stop offset=".32" stop-color="#c1a9e1" stop-opacity=".38"/><stop offset=".64" stop-color="#8a5dc8" stop-opacity=".71"/><stop offset=".88" stop-color="#682db8" stop-opacity=".92"/><stop offset="1" stop-color="#5c1cb2"/></linearGradient><linearGradient id="linear-gradient-11" x1="16.58" y1="10.83" x2="16.26" y2="17.6" xlink:href="#linear-gradient-10"/></defs><g class="cls-10"><g id="Layer_2"><g id="Layer_1-2"><g><circle class="cls-19" cx="11.59" cy="11.59" r="11.59"/><g><path class="cls-7" d="M18.83,18.33c-1.84-1.31-4.35-2.12-7.12-2.12s-5.29,.81-7.12,2.12h14.25Z"/><path class="cls-18" d="M19.63,17.57c-.36,.05-5.22,0-5.22,0l-.11-.51-.44-2s1.79,.09,1.68-.04c-.11-.13-.31-2.18-1.3-2.49-.99-.31-2.53-.35-2.53-.35v-3.9l1.42-.95c.69,.8,4.35,2.84,4.8,3.82,.44,.97,2.2,3.45,2.36,4.43,.16,.98-.28,1.96-.65,2Z"/><path class="cls-5" d="M19.63,17.57c-.36,.05-5.22,0-5.22,0l-.11-.51c.9-.04,2.22-.11,3.42-.21,2.1-.18,2.55-1.29,2.55-1.29,.16,.98-.28,1.96-.65,2Z"/><path class="cls-1" d="M18.83,15.14s-1.1-2.38-2.21-2.99l.35,2.74,1.86,.25Z"/><path class="cls-13" d="M16.62,15.37s1.53-.47,2.92,.22c0,0-.35-.7-1.82-1,0,0-.94-3.09-2.05-3.24-1.11-.14-1.17,4.24-1.17,4.24l2.13-.22Z"/><path class="cls-20" d="M9.93,7.32c-.69,.8-4.35,2.84-4.8,3.82s-2.19,3.46-2.36,4.43c-.16,.98,.28,1.96,.65,2,.36,.05,5.21,0,5.21,0l.56-2.5s-1.79,.09-1.68-.04,.31-2.18,1.3-2.49c.99-.31,2.53-.35,2.53-.35v-3.9l-1.42-.95Z"/><path class="cls-3" d="M3.42,17.57c.36,.05,5.22,0,5.22,0l.11-.51c-.9-.04-2.22-.11-3.42-.21-2.1-.18-2.55-1.29-2.55-1.29-.16,.98,.28,1.96,.65,2Z"/><path class="cls-2" d="M4.22,15.14s1.1-2.38,2.21-2.99l-.35,2.74-1.86,.25Z"/><path class="cls-13" d="M6.56,15.37s-1.53-.47-2.92,.22c0,0,.35-.7,1.82-1,0,0,.94-3.09,2.05-3.24,1.11-.14,1.17,4.24,1.17,4.24l-2.13-.22Z"/><path class="cls-15" d="M15.21,7.18c-.05,1.16-.25,3.6-1.07,4.26-.61,.49-1.71,.18-2.54,.18-.96,0-1.94,.47-2.59-.18-.65-.65-.97-3.25-1.02-4.26,.63-1.36,2.01-2.3,3.61-2.3s2.97,.94,3.61,2.3Z"/><path class="cls-4" d="M8.16,6.03c0,1.7,.43,3.48,.78,4.27,.34,.79,1.48,2.23,2.68,2.44,1.2,.21,2.37-1.53,2.75-2.55,.61-1.66,.67-4.39,.67-4.39,0,0-1.96-1.78-3.78-1.61-1.82,.17-3.09,1.84-3.09,1.84Z"/><path class="cls-13" d="M8.9,5.61c0,1.32,.34,2.7,.61,3.31,.27,.61,1.02,1.89,2.1,1.89,.95,0,1.86-1.18,2.16-1.98,.48-1.29,.53-3.4,.53-3.4,0,0-1.53-1.38-2.96-1.25s-2.42,1.43-2.42,1.43Z"/><g><path d="M14.36,8.91h0c.32,0,.58-.26,.58-.58v-1.44c0-.32-.26-.58-.58-.58h0c-.32,0-.58,.26-.58,.58v1.44c0,.32,.26,.58,.58,.58Z"/><path class="cls-9" d="M14.93,6.9v1.44c0,.06,0,.11-.02,.16-.22-.08-.38-.29-.38-.54v-1.44c0-.06,0-.11,.02-.16,.22,.08,.38,.29,.38,.54Z"/><rect x="13.63" y="6.06" width=".74" height="3.11" rx=".11" ry=".11" transform="translate(27.99 15.22) rotate(180)"/><path class="cls-9" d="M14.36,6.42v2.37c0,.06-.01,.11-.04,.16-.2,0-.36-.17-.36-.37v-2.37c0-.06,.01-.11,.04-.16,.2,0,.36,.17,.36,.37Z"/><path class="cls-17" d="M13.63,9.16h0c.07,0,.12-.06,.12-.12v-2.86c0-.07-.06-.12-.12-.12h0c-.07,0-.12,.06-.12,.12v2.86c0,.07,.06,.12,.12,.12Z"/><path class="cls-14" d="M13.63,6.06s-.02,.04-.02,.06v2.86c0,.07,.06,.12,.12,.12h0s-.06,.06-.11,.06c-.07,0-.12-.06-.12-.12v-2.86c0-.07,.05-.12,.12-.12Z"/><path class="cls-8" d="M14.2,7.75h0s.06-.03,.06-.06v-1.19s-.03-.06-.06-.06h0s-.06,.03-.06,.06v1.19s.03,.06,.06,.06Z"/><path class="cls-8" d="M14.19,8.06h0s.06-.03,.06-.06v-.04s-.03-.06-.06-.06h0s-.06,.03-.06,.06v.04s.03,.06,.06,.06Z"/><path class="cls-8" d="M14.77,7.68h0s.06-.03,.06-.06v-.82s-.03-.06-.06-.06h0s-.06,.03-.06,.06v.82s.03,.06,.06,.06Z"/><path class="cls-8" d="M14.76,7.97h0s.06-.03,.06-.06v-.04s-.03-.06-.06-.06h0s-.06,.03-.06,.06v.04s.03,.06,.06,.06Z"/></g><path class="cls-16" d="M11.61,2.14c-1.33,0-3.61,2.75-3.61,4.85,0,.06,0,.12,0,.18,.63-1.36,2.01-2.3,3.61-2.3s2.97,.94,3.61,2.3c0-.06,0-.12,0-.19,0-2.1-2.24-4.85-3.61-4.85Z"/><path class="cls-7" d="M15.94,17.35H7.27c-.41,0-.75-.31-.79-.72l-.49-5.64c-.04-.46,.32-.86,.79-.86h9.66c.46,0,.83,.4,.79,.86l-.49,5.64c-.04,.41-.38,.72-.79,.72Z"/><path class="cls-21" d="M15.94,17.59H7.27c-.41,0-.75-.31-.79-.72l-.49-5.64c-.04-.46,.32-.86,.79-.86h9.66c.46,0,.83,.4,.79,.86l-.49,5.64c-.04,.41-.38,.72-.79,.72Z"/><g class="cls-6"><path class="cls-12" d="M7.26,10.38h-.48c-.46,0-.83,.4-.79,.86l.49,5.64c.04,.41,.38,.72,.79,.72h.34l-.35-7.22Z"/><path class="cls-11" d="M16.44,10.38h-.48l-.35,7.22h.34c.41,0,.75-.31,.79-.72l.49-5.64c.04-.46-.32-.86-.79-.86Z"/></g><g><path d="M8.91,8.68h0c-.32,0-.58-.26-.58-.58v-1.44c0-.32,.26-.58,.58-.58h0c.32,0,.58,.26,.58,.58v1.44c0,.32-.26,.58-.58,.58Z"/><path class="cls-9" d="M8.33,6.67v1.44c0,.06,0,.11,.02,.16,.22-.08,.38-.29,.38-.54v-1.44c0-.06,0-.11-.02-.16-.22,.08-.38,.29-.38,.54Z"/><rect x="8.9" y="5.82" width=".74" height="3.11" rx=".11" ry=".11"/><path class="cls-9" d="M8.9,6.19v2.37c0,.06,.01,.11,.04,.16,.2,0,.36-.17,.36-.37v-2.37c0-.06-.01-.11-.04-.16-.2,0-.36,.17-.36,.37Z"/><path class="cls-17" d="M9.63,8.93h0c-.07,0-.12-.06-.12-.12v-2.86c0-.07,.06-.12,.12-.12h0c.07,0,.12,.06,.12,.12v2.86c0,.07-.06,.12-.12,.12Z"/><path class="cls-14" d="M9.64,5.82s.02,.04,.02,.06v2.86c0,.07-.06,.12-.12,.12h0s.06,.06,.11,.06c.07,0,.12-.06,.12-.12v-2.86c0-.07-.05-.12-.12-.12Z"/><path class="cls-8" d="M9.07,7.51h0s-.06-.03-.06-.06v-1.19s.03-.06,.06-.06h0s.06,.03,.06,.06v1.19s-.03,.06-.06,.06Z"/><path class="cls-8" d="M9.08,7.82h0s-.06-.03-.06-.06v-.04s.03-.06,.06-.06h0s.06,.03,.06,.06v.04s-.03,.06-.06,.06Z"/><path class="cls-8" d="M8.49,7.45h0s-.06-.03-.06-.06v-.82s.03-.06,.06-.06h0s.06,.03,.06,.06v.82s-.03,.06-.06,.06Z"/><path class="cls-8" d="M8.5,7.74h0s-.06-.03-.06-.06v-.04s.03-.06,.06-.06h0s.06,.03,.06,.06v.04s-.03,.06-.06,.06Z"/></g><path class="cls-22" d="M11.71,14.22l1.1,.68c-.24,.38-.65,.61-1.1,.61-.71,0-1.29-.58-1.29-1.29s.58-1.29,1.29-1.29,1.29,.58,1.29,1.29h-1.29Z"/></g></g></g></g></g></svg>